Coordinates
version=1
nRows=17
nColumns=40
inDegrees=yes

Units are S.I. units (second, meters, Newtons, ...)
Angles are in degrees.

endheader
time	pelvis_tilt	pelvis_list	pelvis_rotation	pelvis_tx	pelvis_ty	pelvis_tz	hip_flexion_r	hip_adduction_r	hip_rotation_r	knee_angle_r	knee_angle_r_beta	ankle_angle_r	subtalar_angle_r	mtp_angle_r	hip_flexion_l	hip_adduction_l	hip_rotation_l	knee_angle_l	knee_angle_l_beta	ankle_angle_l	subtalar_angle_l	mtp_angle_l	lumbar_extension	lumbar_bending	lumbar_rotation	arm_flex_r	arm_add_r	arm_rot_r	elbow_flex_r	pro_sup_r	wrist_flex_r	wrist_dev_r	arm_flex_l	arm_add_l	arm_rot_l	elbow_flex_l	pro_sup_l	wrist_flex_l	wrist_dev_l
     58.12464286	     -4.41606173	     -4.90709446	     -7.92728564	      0.93840103	      0.92792155	      0.41249712	     25.42038688	     -1.61432885	     -8.08926158	     17.51919143	     17.51919143	      4.04478777	      7.55260640	      2.03764770	      6.69028221	     -4.04827616	    -12.31969248	     19.76744204	     19.76744204	     18.62064555	    -12.52244553	      1.09003513	    -10.19793412	      6.23778598	      1.27294001	    -17.37535713	    -12.64328336	    -13.07864410	     27.79933195	     46.53609453	      0.00000000	      0.00000000	     33.67452175	    -20.39962833	     -5.79044871	     62.63249550	     47.55039478	      0.00000000	      0.00000000
     58.14428571	     -4.48455418	     -4.64676418	     -8.31441904	      0.93878164	      0.92683990	      0.41567332	     25.12987036	     -1.44338558	     -8.96941914	     15.58557581	     15.58557581	      3.87076855	      9.98001453	      3.50653699	      6.00767551	     -3.89300380	    -12.81464940	     19.27133461	     19.27133461	     18.63461152	    -12.33578489	      0.25427166	    -10.09484845	      6.02576627	      1.33957265	    -18.11016777	    -12.44698558	    -12.95737981	     28.77140069	     46.46633022	      0.00000000	      0.00000000	     34.41247412	    -20.85602913	     -6.57751480	     64.96539942	     47.64945349	      0.00000000	      0.00000000
     58.16392857	     -4.60121156	     -4.39006739	     -8.62142027	      0.93934601	      0.92548088	      0.41902531	     24.98480290	     -1.18242991	     -9.10644389	     14.30991771	     14.30991771	      3.53105707	     10.80067393	      3.90837149	      5.51270327	     -3.75262520	    -13.08410569	     19.04992475	     19.04992475	     18.93023289	    -12.35996694	      0.07478995	     -9.82829289	      5.82990819	      1.44035445	    -18.26955875	    -12.19501627	    -12.87555955	     28.83891321	     46.45369085	      0.00000000	      0.00000000	     35.61046568	    -21.28045736	     -6.87352676	     65.83823539	     47.69402184	      0.00000000	      0.00000000
     58.18357143	     -4.50928750	     -4.31814600	     -8.90647422	      0.94058766	      0.92460375	      0.42255370	     24.40436413	     -0.84585775	     -9.65619374	     13.25307982	     13.25307982	      3.16153563	     12.05024975	      4.01628837	      4.58146466	     -3.76817990	    -13.44879368	     18.55731161	     18.55731161	     19.17562759	    -12.14007471	     -0.21457698	     -9.84210404	      5.84737183	      1.85135802	    -18.50110776	    -12.01609723	    -12.74325338	     29.05683978	     46.42875076	      0.00000000	      0.00000000	     36.44361155	    -21.31122584	     -7.32602207	     67.50867651	     47.75948596	      0.00000000	      0.00000000
     58.20321429	     -4.53028353	     -4.15577315	     -9.12481699	      0.94207391	      0.92338704	      0.42615730	     24.23321203	     -0.66519719	     -9.89859291	     13.12522181	     13.12522181	      2.76340700	     12.60262679	      2.86394354	      3.82440295	     -3.72046182	    -13.79458828	     18.15496682	     18.15496682	     19.35909043	    -11.90269401	     -0.71374624	     -9.69915616	      5.81477181	      1.91618239	    -18.51062446	    -11.94647793	    -12.49416030	     29.63954987	     46.37843738	      0.00000000	      0.00000000	     36.71816297	    -21.53078638	     -8.34801247	     69.95747627	     47.87248605	      0.00000000	      0.00000000
     58.22285714	     -4.49815652	     -4.06772820	     -9.25412675	      0.94382615	      0.92233728	      0.42988423	     24.09073884	     -0.45407181	     -9.74851103	     13.54713812	     13.54713812	      2.74358724	     12.41258199	      2.20649177	      3.06321436	     -3.74031967	    -13.90499756	     17.89294189	     17.89294189	     19.65449531	    -11.86156807	     -0.80004541	     -9.55692926	      5.87573614	      2.01125313	    -18.21311645	    -11.87301034	    -12.36895364	     29.76888055	     46.36454427	      0.00000000	      0.00000000	     37.47996235	    -21.76429821	     -8.73204743	     70.85993106	     47.91930839	      0.00000000	      0.00000000
     58.24250000	     -4.50761932	     -3.98916466	     -9.37836228	      0.94599136	      0.92128424	      0.43383230	     23.86545317	     -0.17164674	     -9.22003632	     13.89153739	     13.89153739	      1.53866589	     11.47779192	     -2.04863765	      2.25062467	     -3.78546662	    -14.13212882	     17.50256194	     17.50256194	     19.95070818	    -11.62115318	     -0.84954640	     -9.40885923	      5.98449008	      1.57146093	    -17.53846963	    -12.04537394	    -11.66646789	     29.88795625	     46.30488621	      0.00000000	      0.00000000	     36.88545532	    -22.19084470	    -10.55928624	     73.95789265	     48.08666067	      0.00000000	      0.00000000
     58.26214286	     -4.43079219	     -3.98344689	     -9.40025220	      0.94837669	      0.92058155	      0.43783534	     23.79925285	      0.02014400	     -8.87282231	     15.04577787	     15.04577787	      1.87379620	     10.80657221	     -2.71711026	      1.34271276	     -3.89377213	    -14.21164035	     17.12863545	     17.12863545	     20.18079677	    -11.47097259	     -0.74492562	     -9.28753674	      6.16104227	      1.80349556	    -17.20010803	    -12.09472663	    -11.54846644	     29.87750561	     46.29892761	      0.00000000	      0.00000000	     37.51644784	    -22.22098170	    -10.73279605	     74.59512025	     48.11276255	      0.00000000	      0.00000000
     58.28178571	     -4.42354971	     -4.00594813	     -9.40834049	      0.95084300	      0.91994372	      0.44210947	     23.77052921	      0.37928235	     -7.88054039	     16.16043851	     16.16043851	      1.81017091	      8.94344256	     -4.45918875	      0.53634434	     -4.08832724	    -14.34311947	     16.83801378	     16.83801378	     20.58544106	    -11.13777498	     -0.20145033	     -9.16564612	      6.36968943	      1.73105507	    -16.58189465	    -12.23576059	    -11.23832478	     29.71991586	     46.28451464	      0.00000000	      0.00000000	     37.43781843	    -22.34127839	    -11.61397366	     76.53044819	     48.19976967	      0.00000000	      0.00000000
     58.30142857	     -4.32763772	     -4.11871184	     -9.27469557	      0.95352663	      0.91964261	      0.44631383	     23.64125817	      0.63282485	     -7.64079448	     17.44290657	     17.44290657	      2.33955063	      8.22509165	     -4.97372630	     -0.33428049	     -4.37604772	    -14.32068005	     16.59403017	     16.59403017	     20.72985318	    -10.97483989	     -0.04675697	     -9.12399770	      6.70505806	      1.83181118	    -16.18834618	    -12.40345333	    -11.22074891	     29.78812953	     46.28362099	      0.00000000	      0.00000000	     37.84213841	    -22.38088883	    -11.75937448	     77.00028703	     48.21976023	      0.00000000	      0.00000000
     58.32107143	     -4.29841648	     -4.06612077	     -9.16500988	      0.95617300	      0.91935707	      0.45082946	     23.72808816	      0.88742493	     -6.63051161	     18.89892139	     18.89892139	      2.95812401	      6.30711238	     -5.40387347	     -1.08894271	     -4.54943210	    -14.42317192	     16.39956597	     16.39956597	     20.94363779	    -10.56354612	      0.41948236	     -8.97397875	      6.74512989	      1.86366936	    -15.76471291	    -12.52319968	    -11.20972127	     29.81662025	     46.28376736	      0.00000000	      0.00000000	     37.89029241	    -22.37061558	    -12.20342617	     78.26199187	     48.27002508	      0.00000000	      0.00000000
     58.34071429	     -4.31990754	     -4.20336794	     -8.88480942	      0.95891339	      0.91944301	      0.45525914	     23.35805765	      1.19348287	     -6.54734851	     19.51048670	     19.51048670	      3.61052043	      5.95699105	     -5.70164049	     -1.63352253	     -4.98765154	    -14.28748793	     16.47758529	     16.47758529	     20.86514901	    -10.50008175	      0.54412892	     -8.74930642	      7.06040531	      1.85238120	    -15.46220105	    -12.69667455	    -11.23132274	     29.90512185	     46.28437303	      0.00000000	      0.00000000	     38.09220538	    -22.32466749	    -12.23146481	     78.49968559	     48.27723147	      0.00000000	      0.00000000
     58.36035714	     -4.14242142	     -4.31313574	     -8.59827291	      0.96140079	      0.91973015	      0.45996445	     23.21043239	      1.65659726	     -5.48207132	     20.83609762	     20.83609762	      4.44238823	      3.52610246	     -5.14280927	     -2.12880704	     -5.53985561	    -14.50256664	     17.12300949	     17.12300949	     21.43416136	     -9.67492986	      1.50228361	     -8.93577870	      7.23514950	      1.40239826	    -14.73816038	    -12.93368811	    -11.36093566	     29.98265163	     46.29192833	      0.00000000	      0.00000000	     37.50877286	    -22.66247881	    -13.18543994	     80.62073289	     48.37052028	      0.00000000	      0.00000000
     58.38000000	     -4.02138583	     -4.37544648	     -8.19465235	      0.96395329	      0.92030473	      0.46440496	     22.74612060	      1.84138242	     -5.55925884	     21.46385339	     21.46385339	      5.12541744	      3.08972851	     -5.35622877	     -2.53300983	     -5.98728008	    -14.25239687	     17.64626248	     17.64626248	     21.24434330	     -9.65383717	      1.57970177	     -8.92783604	      7.37684984	      1.36013004	    -14.43480568	    -13.14476853	    -11.38222292	     30.05068613	     46.29316476	      0.00000000	      0.00000000	     37.58501300	    -22.50056261	    -13.16370533	     80.80638591	     48.37245703	      0.00000000	      0.00000000
     58.39964286	     -4.06826691	     -4.44834651	     -7.75589544	      0.96609403	      0.92069415	      0.46904524	     22.45002741	      2.16299419	     -5.35862083	     21.99449693	     21.99449693	      5.84945130	      2.06355083	     -5.10732059	     -2.28958964	     -6.66538604	    -14.07842422	     19.01836067	     19.01836067	     21.13132324	     -9.57369358	      1.48499803	     -8.78362282	      7.47746712	      1.26697319	    -14.13914982	    -13.30051170	    -11.41825310	     30.12432815	     46.29335790	      0.00000000	      0.00000000	     37.49062319	    -22.32715990	    -13.21954947	     81.38829507	     48.38509990	      0.00000000	      0.00000000
     58.41928571	     -3.98260915	     -4.53228101	     -7.25530092	      0.96820687	      0.92152124	      0.47355718	     21.82901080	      2.41368626	     -5.50004596	     22.17050582	     22.17050582	      6.49100434	      1.59848579	     -4.99086949	     -2.07139693	     -7.35590120	    -13.76305328	     20.53635758	     20.53635758	     20.77649239	     -9.67821584	      1.22637533	     -8.79307887	      7.55916719	      1.20600126	    -13.82194785	    -13.48029480	    -11.44407814	     30.22776828	     46.29250077	      0.00000000	      0.00000000	     37.37490176	    -22.12305778	    -13.18930196	     81.65514951	     48.38667814	      0.00000000	      0.00000000
     58.43892857	     -3.96683172	     -4.60132030	     -6.71821494	      0.97006510	      0.92231023	      0.47805681	     21.22411956	      2.66897621	     -5.70920498	     22.18910167	     22.18910167	      7.06709219	      1.16410044	     -4.79977568	     -1.43920264	     -8.13962583	    -13.35644954	     22.60070530	     22.60070530	     20.21472268	     -9.90131243	      0.60850807	     -8.72454522	      7.58754476	      1.12810041	    -13.50920355	    -13.63808006	    -11.45140943	     30.33250508	     46.28987736	      0.00000000	      0.00000000	     37.04325587	    -21.76136193	    -13.09097990	     81.84610172	     48.38097237	      0.00000000	      0.00000000
